<svg id="Objects" xmlns="http://www.w3.org/2000/svg" viewBox="0 0 66.34 257.41"><defs><style>.cls-1{fill:#bcb315;}</style></defs><title>navaja</title><path class="cls-1" d="M520.17,151.41l-7.9-.63-0.38,4.78-3.12-.25L501,253.08l3.13,0.25-1.12,14-3.39,3-7.43,93.18-0.08,0-0.08,0-7.43-93.18-3.39-3-1.12-14,3.12-.25-7.79-97.77-3.13.25-0.38-4.78-7.9.63a5.53,5.53,0,0,0-5.07,6L477.4,388.93a5.53,5.53,0,0,0,6,5.07l6.93-.55L489,406.93l13.22,1.26,1.4-14.69a5.52,5.52,0,0,0,3.19-4.58l18.45-231.57A5.53,5.53,0,0,0,520.17,151.41Z" transform="translate(-458.93 -150.78)"/></svg>