<svg id="Objects" xmlns="http://www.w3.org/2000/svg" viewBox="0 0 88.11 81.72"><defs><style>.cls-1{fill:#bcb315;}</style></defs><title>recorte</title><path class="cls-1" d="M374.87,714.18v21.77c0,6.15-3.93,11.13-8.78,11.13h-2.66c-4.85,0-8.78-5-8.78-11.13V714.08" transform="translate(-343.84 -665.36)"/><path class="cls-1" d="M386,679.34s-4.66-12.85-20.35-14h-0.8a24.84,24.84,0,0,0-21,14l11.78,18.94,9.3,0,9.31,0Z" transform="translate(-343.84 -665.36)"/><rect class="cls-1" x="11.81" y="34.78" width="18.55" height="14"/><rect class="cls-1" x="52.53" y="22.25" width="13.79" height="10.34"/><path class="cls-1" d="M411.05,698v41.87c0,4-2.81,7.22-6.27,7.22H402c-3.46,0-6.27-3.23-6.27-7.22V698" transform="translate(-343.84 -665.36)"/><path class="cls-1" d="M431.95,677.65v67.5a2,2,0,0,1-2.12,1.93h0a2,2,0,0,1-2.12-1.93V677.83" transform="translate(-343.84 -665.36)"/><rect class="cls-1" x="83.72" y="12.14" width="4.39" height="23.51"/></svg>