<svg id="Objects" xmlns="http://www.w3.org/2000/svg" viewBox="0 0 84.81 173.15"><defs><style>.cls-1{fill:#c6b918;}</style></defs><title>tijeras</title><path class="cls-1" d="M722.59,297.15a20.78,20.78,0,0,0-5-11.25,17.54,17.54,0,0,0-5.6-4.21l12.73-30.4L716,247.48,705,280.3a14.42,14.42,0,0,0-3.12.44c-7.9,2-13.49,10.19-13.31,19.48a21,21,0,0,0,5.16,13.61,15.94,15.94,0,0,0,12.38,5.63,15.57,15.57,0,0,0,3.41-.44c6.05-1.54,10.73-6.71,12.52-13.2a4.3,4.3,0,0,0,4.4-5.42,4.37,4.37,0,0,0-3.8-3.25h0Zm-14.42,16.8a9.35,9.35,0,0,1-2.21.3,10.87,10.87,0,0,1-8.36-3.88,16,16,0,0,1-3.84-10.25c-0.15-6.89,3.81-12.9,9.38-14.32a9.18,9.18,0,0,1,2.22-.29,10.83,10.83,0,0,1,8.36,3.87,16,16,0,0,1,3.84,10.25c0.13,6.88-3.81,12.91-9.39,14.32h0Zm0,0" transform="translate(-688.53 -150.78)"/><path class="cls-1" d="M773.29,321.25c-0.48-1-12-8-11.51-14.56a22.25,22.25,0,0,0,.5-7.3c-0.8-8.12-5.92-14.88-12.63-17.13l-15.72-39.68-7.63-86.32-2.77-5.47,0,0.37L722,157.61l-5.4,85.11L726.76,248,740,282.23a16.3,16.3,0,0,0-8.29,6.36,21.07,21.07,0,0,0-3.54,14.12c0.93,9.24,7.46,16.74,15.54,17.77a14.68,14.68,0,0,0,3.45.06,15.17,15.17,0,0,0,7.1-2.62c6.71-1.72,12.49,4.86,14.21,5.77s5.33-1.32,4.82-2.45h0Zm-48.34-80.91a2.74,2.74,0,1,1,2.71-2.77,2.74,2.74,0,0,1-2.71,2.77h0Zm29.53,70.17a10.93,10.93,0,0,1-7.85,4.85,10,10,0,0,1-2.26,0c-5.69-.76-10.33-6.27-11-13.12A15.86,15.86,0,0,1,736,291.6a10.78,10.78,0,0,1,7.82-4.85,9.36,9.36,0,0,1,2.25,0c5.71,0.74,10.34,6.26,11,13.1a15.86,15.86,0,0,1-2.6,10.63h0Zm0,0" transform="translate(-688.53 -150.78)"/></svg>